# xmcd
#
# Track frame offsets: 
#        150
#        12217
#        25849
#        35914
#        53001
#        69046
#        91346
#        105508
#        122666
#        138811
#        152096
#        162845
#        175342
#        190127
#        205154
#        216763
#
# Disc length: 3054 seconds
#
# Revision: 3
# Processed by: cddbd v1.5.1PL0 Copyright (c) Steve Scherf et al.
# Submitted via: ExactAudioCopy v0.95a5
#
DISCID=cc0bec10
DTITLE=The Toy Dolls - Wonderful World of The Toy Dolls
DYEAR=1999
DGENRE=Punk
TTITLE0=Tommy Kowey's Car
TTITLE1=Nellie the Elephant
TTITLE2=I've Got Asthma
TTITLE3=Cheerio and Toodle Pip
TTITLE4=Alfie From the Bronx
TTITLE5=We're Mad
TTITLE6=She Goes to Finos
TTITLE7=James Bond Lives Down Our Street
TTITLE8=Geordie's Gone to Jail
TTITLE9=Yul Bryner was a Skinhead
TTITLE10=No Particular Place to Go
TTITLE11=Turtle Crazy
TTITLE12=Kids on Tyne and Wear
TTITLE13=Ernie Had a Hernia
TTITLE14=Lazy Sunday Afternoon
TTITLE15=Fat Bob's Feet
EXTD=
EXTT0=
EXTT1=
EXTT2=
EXTT3=
EXTT4=
EXTT5=
EXTT6=
EXTT7=
EXTT8=
EXTT9=
EXTT10=
EXTT11=
EXTT12=
EXTT13=
EXTT14=
EXTT15=
PLAYORDER=
